<svg width="817" height="553" viewBox="0 0 817 553" fill="none" xmlns="http://www.w3.org/2000/svg">
<mask id="mask0" mask-type="alpha" maskUnits="userSpaceOnUse" x="0" y="0" width="817" height="553">
<path opacity="0.3" d="M474.688 91.1699C422.311 89.3285 372.419 72.2324 324.785 53.5241C277.15 34.8158 229.969 14.086 178.847 4.17538C145.966 -2.19985 108.358 -3.10008 81.8703 14.7244C56.3698 31.9105 48.1313 61.4952 43.7046 88.9766C40.3703 109.649 38.4119 131.402 47.5487 150.757C53.8853 164.195 65.1425 175.488 72.9197 188.402C100.006 233.185 80.8668 288.409 51.5141 332.136C37.7563 352.653 21.773 372.237 11.1552 394.055C0.537429 415.873 -4.38301 440.907 4.90755 463.184C14.1253 485.28 36.0811 501.845 59.8578 513.507C108.164 537.199 165.065 543.975 220.589 547.813C343.463 556.316 466.984 552.634 590.181 548.951C635.776 547.584 681.565 546.201 726.415 539.073C751.325 535.112 777.036 528.835 795.123 513.662C818.075 494.405 823.764 461.793 808.388 437.65C782.58 397.148 711.274 387.09 693.211 343.618C683.289 319.696 693.486 293.05 707.907 270.855C738.854 223.257 790.721 181.495 793.456 127.089C795.334 89.7132 770.392 52.2965 731.838 34.6112C691.43 16.0093 635.379 18.3662 605.581 49.0475C574.877 80.6618 520.93 92.7903 474.688 91.1699Z" fill="#3700FF"/>
</mask>
<g mask="url(#mask0)">
<rect x="177" width="663" height="553" fill="#3C04FF"/>
</g>
</svg>
