<svg width="659" height="634" viewBox="0 0 659 634" fill="none" xmlns="http://www.w3.org/2000/svg">
<path d="M588.758 190.409C588.758 190.409 564.506 90.6477 417.682 27.7333C270.858 -35.1812 139.445 23.0888 109.557 96.8109C79.6689 170.533 110.995 210.343 91.0117 273.302C71.0289 336.26 -31.6315 415.998 9.72881 512.692C51.0891 609.386 245.038 637.002 401.925 617.053C558.813 597.104 681.427 376.1 588.758 190.409Z" fill="#C8B9FC"/>
<path opacity="0.7" d="M588.758 190.409C588.758 190.409 564.506 90.6477 417.682 27.7333C270.858 -35.1812 139.445 23.0888 109.557 96.8109C79.6689 170.533 110.995 210.343 91.0117 273.302C71.0289 336.26 -31.6315 415.998 9.72881 512.692C51.0891 609.386 245.038 637.002 401.925 617.053C558.813 597.104 681.427 376.1 588.758 190.409Z" fill="white"/>
<path d="M206.752 110.935H87.43C83.6172 110.935 79.9606 112.488 77.2645 115.253C74.5685 118.019 73.0538 121.769 73.0538 125.679V171.387C73.0538 175.297 74.5685 179.048 77.2645 181.813C79.9606 184.578 83.6172 186.131 87.43 186.131H206.034L221.129 206.774V125.679C221.129 121.769 219.614 118.019 216.918 115.253C214.222 112.488 210.565 110.935 206.752 110.935Z" fill="#263238"/>
<path d="M99.032 161.258H94.7191V133.243H99.032V145.23H103.891V133.287H108.204V161.302H103.891V149.315H99.032V161.258Z" fill="#C8B9FC"/>
<path d="M111.38 133.288H115.693V161.302H111.38V133.288Z" fill="#C8B9FC"/>
<path d="M123.629 133.288H136.869V137.283H132.326V161.258H128.014V137.283H123.629V133.288Z" fill="#C8B9FC"/>
<path d="M142.965 161.258H138.653V133.243H142.965V145.23H147.839V133.287H152.152V161.302H147.839V149.315H142.965V161.258Z" fill="#C8B9FC"/>
<path d="M159.57 145.068H165.449V149.064H159.57V157.262H166.973V161.258H155.257V133.243H166.945V137.239H159.57V145.068Z" fill="#C8B9FC"/>
<path d="M178.604 161.258C178.253 160.15 178.121 158.982 178.216 157.822V153.399C178.216 150.804 177.368 149.845 175.341 149.845H173.903V161.228H169.59V133.214H176.059C180.502 133.214 182.414 135.337 182.414 139.642V141.839C182.414 144.788 181.508 146.602 179.539 147.516C181.681 148.445 182.414 150.553 182.414 153.414V157.734C182.336 158.886 182.498 160.042 182.888 161.125L178.604 161.258ZM173.946 137.283V145.879H175.628C177.224 145.879 178.202 145.157 178.202 142.93V140.158C178.202 138.168 177.54 137.209 176.016 137.209L173.946 137.283Z" fill="#C8B9FC"/>
<path d="M189.601 145.068H195.51V149.064H189.63V157.262H196.948V161.258H185.303V133.243H196.948V137.239H189.558L189.601 145.068Z" fill="#C8B9FC"/>
<path d="M200.197 155.065L199.651 144.95V133.288H203.963V144.95L203.417 155.065H200.197ZM203.848 157.026V161.258H199.722V157.026H203.848Z" fill="#C8B9FC"/>
<path d="M408.033 112.409C408.033 112.409 402.714 110.477 401.506 115.358C400.299 120.238 407.343 122.052 408.206 122.052C409.068 122.052 410.434 120.828 409.572 118.012C408.709 115.195 408.033 112.409 408.033 112.409Z" fill="#263238" stroke="#263238" stroke-linecap="round" stroke-linejoin="round"/>
<path d="M438.266 100.437C438.266 100.437 437.748 107.485 437.748 110.301C437.748 113.117 440.624 114.179 442.061 114.179C443.499 114.179 444.131 117.526 443.269 121.05C442.406 124.574 439.488 126.682 432.444 126.682C425.399 126.682 421.115 123.512 420.943 121.227C420.77 118.941 422.481 109.062 425.414 106.482C428.346 103.902 438.266 100.437 438.266 100.437Z" fill="#263238" stroke="#263238" stroke-linecap="round" stroke-linejoin="round"/>
<path d="M412.49 122.096V124.824C412.491 125.253 412.612 125.673 412.839 126.034C413.066 126.395 413.389 126.681 413.77 126.859C415.004 127.394 416.315 127.718 417.651 127.817C420.343 127.818 423.003 127.214 425.443 126.048C425.781 125.9 426.069 125.653 426.271 125.339C426.473 125.024 426.58 124.655 426.579 124.279V121.359C426.576 121.186 426.531 121.016 426.449 120.864C426.367 120.712 426.25 120.583 426.108 120.489C425.966 120.394 425.804 120.337 425.635 120.321C425.467 120.306 425.297 120.333 425.141 120.401L424.581 120.696C424.581 120.696 416.099 121.875 412.49 122.096Z" fill="#C8B9FC" stroke="#263238" stroke-linecap="round" stroke-linejoin="round"/>
<path d="M408.723 99.0214C407.783 102.895 407.149 106.839 406.826 110.817C406.308 117.334 406.826 123.32 409.399 123.497C411.165 123.5 412.895 122.989 414.388 122.023C414.388 122.023 420.397 122.73 422.453 121.684L424.523 120.622L426.061 110.301C426.061 110.301 426.234 94.2737 423.315 93.2121C420.397 92.1505 408.723 99.0214 408.723 99.0214Z" fill="white" stroke="#263238" stroke-linecap="round" stroke-linejoin="round"/>
<path d="M413.353 106.246L411.987 109.947C411.987 109.947 409.227 110.654 409.572 112.055C409.917 113.456 411.743 113.249 411.743 113.249" stroke="#263238" stroke-linecap="round" stroke-linejoin="round"/>
<path d="M417.766 107.853C417.493 108.62 416.932 109.121 416.544 108.974C416.156 108.826 416.041 108.074 416.328 107.293C416.616 106.511 417.162 106.01 417.565 106.172C417.967 106.334 418.054 107.131 417.766 107.853Z" fill="#263238"/>
<path d="M411.296 106.069C411.009 106.85 410.463 107.352 410.06 107.204C409.658 107.057 409.571 106.29 409.844 105.523C410.118 104.757 410.678 104.241 411.081 104.388C411.483 104.535 411.57 105.302 411.296 106.069Z" fill="#263238"/>
<path d="M416.444 102.899C416.444 102.899 419.707 102.014 420.052 105.185" stroke="#263238" stroke-linecap="round" stroke-linejoin="round"/>
<path d="M412.159 102.014C412.159 102.014 409.284 100.967 408.378 103.488" stroke="#263238" stroke-linecap="round" stroke-linejoin="round"/>
<path d="M414.387 122.096L419.016 120.165" stroke="#263238" stroke-linecap="round" stroke-linejoin="round"/>
<path d="M410.951 90.9113C410.951 90.9113 405.46 84.2174 401.334 89.142C397.208 94.0666 398.459 101.483 405.805 101.837C413.151 102.191 421.432 94.7891 421.432 94.7891C421.432 94.7891 420.569 104.476 422.625 107.823C424.681 111.17 426.233 113.456 426.233 113.456C426.233 113.456 429.109 115.387 433.968 111.524C438.827 107.661 439.977 98.2541 436.541 91.9582C433.105 85.6623 427.096 82.0942 419.879 84.586C412.662 87.0778 410.951 90.9113 410.951 90.9113Z" fill="#263238" stroke="#263238" stroke-linecap="round" stroke-linejoin="round"/>
<path d="M422.797 113.294C422.797 113.294 428.979 107.484 428.979 110.831C428.979 114.178 426.104 117.171 423.832 116.464" fill="white"/>
<path d="M422.797 113.294C422.797 113.294 428.979 107.484 428.979 110.831C428.979 114.178 426.104 117.171 423.832 116.464" stroke="#263238" stroke-linecap="round" stroke-linejoin="round"/>
<path d="M409.572 115.977C410.384 116.577 411.36 116.9 412.361 116.9C413.362 116.9 414.337 116.577 415.15 115.977" stroke="#263238" stroke-linecap="round" stroke-linejoin="round"/>
<path d="M441.474 127.125C452.452 115.144 451.881 96.3042 440.199 85.0454C428.517 73.7866 410.148 74.372 399.171 86.353C388.193 98.334 388.764 117.174 400.446 128.432C412.127 139.691 430.497 139.106 441.474 127.125Z" stroke="#263238" stroke-linecap="round" stroke-linejoin="round"/>
<path d="M617.856 348.889C634.355 344.933 644.602 328.009 640.745 311.088C636.887 294.167 620.385 283.657 603.887 287.613C587.388 291.569 577.141 308.494 580.998 325.415C584.856 342.336 601.358 352.846 617.856 348.889Z" stroke="#263238" stroke-linecap="round" stroke-linejoin="round"/>
<path d="M621.333 327.53C621.333 329.601 620.734 331.625 619.613 333.346C618.491 335.068 616.897 336.41 615.032 337.202C613.167 337.994 611.114 338.202 609.134 337.798C607.154 337.394 605.336 336.397 603.908 334.933C602.481 333.469 601.508 331.603 601.115 329.573C600.721 327.542 600.923 325.437 601.695 323.524C602.468 321.611 603.776 319.976 605.455 318.826C607.133 317.676 609.107 317.062 611.126 317.062C613.833 317.062 616.429 318.165 618.343 320.128C620.257 322.091 621.333 324.754 621.333 327.53Z" fill="#C8B9FC" stroke="#263238" stroke-linecap="round" stroke-linejoin="round"/>
<path d="M625.717 334.505C627.919 331.686 629.3 328.287 629.701 324.698C630.101 321.11 629.505 317.479 627.98 314.223C626.456 310.967 624.066 308.219 621.085 306.295C618.104 304.372 614.654 303.351 611.133 303.351C607.611 303.351 604.161 304.372 601.18 306.295C598.2 308.219 595.809 310.967 594.285 314.223C592.761 317.479 592.164 321.11 592.565 324.698C592.965 328.287 594.346 331.686 596.548 334.505H625.717Z" fill="white" stroke="#263238" stroke-linecap="round" stroke-linejoin="round"/>
<path d="M618.415 329.079H603.377C601.6 329.079 599.896 328.355 598.64 327.066C597.384 325.778 596.678 324.03 596.678 322.208C596.676 321.305 596.848 320.411 597.184 319.576C597.52 318.742 598.013 317.983 598.636 317.345C599.258 316.707 599.997 316.201 600.811 315.856C601.625 315.511 602.497 315.335 603.377 315.337H618.415C619.295 315.335 620.167 315.511 620.981 315.856C621.794 316.201 622.533 316.707 623.156 317.345C623.778 317.983 624.272 318.742 624.608 319.576C624.944 320.411 625.116 321.305 625.114 322.208C625.114 324.03 624.408 325.778 623.152 327.066C621.895 328.355 620.191 329.079 618.415 329.079Z" fill="#C8B9FC" stroke="#263238" stroke-linecap="round" stroke-linejoin="round"/>
<path d="M599.754 321.647C600.062 320.763 600.623 319.994 601.365 319.442C602.106 318.891 602.993 318.582 603.909 318.556C604.825 318.531 605.726 318.79 606.496 319.299C607.266 319.809 607.867 320.545 608.221 321.411" stroke="#263238" stroke-width="2" stroke-linecap="round" stroke-linejoin="round"/>
<path d="M613.857 321.647C614.165 320.763 614.727 319.994 615.468 319.442C616.21 318.891 617.096 318.582 618.012 318.556C618.928 318.531 619.829 318.79 620.599 319.299C621.369 319.809 621.97 320.545 622.325 321.411" stroke="#263238" stroke-width="2" stroke-linecap="round" stroke-linejoin="round"/>
<path d="M608.667 324.832C608.734 325.48 609.032 326.08 609.505 326.516C609.977 326.951 610.59 327.193 611.226 327.193C611.861 327.193 612.474 326.951 612.947 326.516C613.419 326.08 613.717 325.48 613.785 324.832H608.667Z" fill="white" stroke="#263238" stroke-linecap="round" stroke-linejoin="round"/>
<path d="M635.292 325.923C634.774 325.923 634.276 325.712 633.91 325.336C633.543 324.96 633.337 324.45 633.337 323.918V319.362C633.337 318.83 633.543 318.32 633.91 317.944C634.276 317.568 634.774 317.357 635.292 317.357C635.811 317.357 636.308 317.568 636.675 317.944C637.041 318.32 637.247 318.83 637.247 319.362V323.874C637.253 324.141 637.207 324.406 637.111 324.655C637.016 324.903 636.872 325.129 636.69 325.32C636.508 325.511 636.291 325.663 636.051 325.766C635.811 325.87 635.553 325.923 635.292 325.923Z" fill="#263238" stroke="#263238" stroke-linecap="round" stroke-linejoin="round"/>
<path d="M586.442 325.923C585.923 325.923 585.426 325.712 585.059 325.336C584.693 324.96 584.487 324.45 584.487 323.918V319.362C584.487 318.83 584.693 318.32 585.059 317.944C585.426 317.568 585.923 317.357 586.442 317.357C586.96 317.357 587.458 317.568 587.824 317.944C588.191 318.32 588.397 318.83 588.397 319.362V323.874C588.403 324.141 588.357 324.406 588.261 324.655C588.165 324.903 588.022 325.129 587.84 325.32C587.658 325.511 587.44 325.663 587.2 325.766C586.96 325.87 586.702 325.923 586.442 325.923Z" fill="#263238" stroke="#263238" stroke-linecap="round" stroke-linejoin="round"/>
<path d="M590.05 319.642C589.779 319.644 589.51 319.591 589.259 319.486C589.007 319.381 588.779 319.226 588.587 319.03C588.394 318.834 588.242 318.601 588.137 318.344C588.033 318.087 587.98 317.812 587.98 317.534V314.231C587.974 310.652 589.015 307.154 590.97 304.19C591.11 303.937 591.3 303.717 591.527 303.543C591.754 303.369 592.014 303.246 592.29 303.18C592.566 303.114 592.853 303.107 593.132 303.16C593.41 303.213 593.675 303.325 593.91 303.488C594.145 303.651 594.344 303.862 594.495 304.108C594.646 304.354 594.746 304.63 594.789 304.917C594.831 305.205 594.815 305.498 594.742 305.779C594.669 306.06 594.54 306.322 594.363 306.549C592.868 308.817 592.071 311.493 592.077 314.231V317.534C592.077 318.088 591.864 318.62 591.485 319.014C591.105 319.409 590.59 319.634 590.05 319.642Z" fill="#263238"/>
<path d="M629.757 306.431C629.589 306.429 629.424 306.385 629.276 306.303C629.128 306.221 629.002 306.103 628.909 305.959C627.591 303.944 625.809 302.293 623.72 301.154C621.631 300.015 619.3 299.422 616.934 299.428H605.519C603.153 299.422 600.822 300.015 598.733 301.154C596.644 302.293 594.861 303.944 593.543 305.959C593.389 306.192 593.151 306.352 592.881 306.405C592.612 306.457 592.333 306.398 592.106 306.24C591.992 306.162 591.894 306.063 591.819 305.946C591.743 305.83 591.691 305.699 591.666 305.561C591.64 305.424 591.642 305.283 591.671 305.146C591.699 305.009 591.754 304.88 591.833 304.765C593.344 302.47 595.384 300.592 597.77 299.296C600.157 298 602.818 297.326 605.519 297.334H616.934C619.638 297.332 622.301 298.013 624.688 299.317C627.075 300.621 629.112 302.507 630.62 304.809C630.697 304.925 630.752 305.055 630.779 305.192C630.807 305.33 630.807 305.471 630.78 305.609C630.754 305.747 630.7 305.877 630.623 305.993C630.546 306.109 630.447 306.208 630.332 306.284C630.159 306.389 629.959 306.441 629.757 306.431Z" fill="#263238"/>
<path d="M632.403 319.642C631.857 319.642 631.334 319.42 630.949 319.025C630.563 318.629 630.347 318.093 630.347 317.534V314.231C630.352 311.493 629.556 308.817 628.061 306.549C627.889 306.321 627.765 306.058 627.697 305.779C627.628 305.499 627.616 305.208 627.661 304.923C627.707 304.639 627.808 304.367 627.96 304.124C628.112 303.881 628.311 303.673 628.545 303.512C628.778 303.352 629.041 303.242 629.318 303.19C629.595 303.137 629.879 303.144 630.153 303.209C630.427 303.274 630.685 303.396 630.911 303.567C631.137 303.738 631.327 303.955 631.468 304.205C633.418 307.165 634.455 310.659 634.444 314.231V317.534C634.444 318.09 634.229 318.624 633.847 319.019C633.465 319.414 632.945 319.638 632.403 319.642Z" fill="#263238"/>
<path d="M590.309 328.901C589.234 328.901 588.203 328.463 587.442 327.684C586.682 326.904 586.255 325.846 586.255 324.744V318.138C586.255 317.035 586.682 315.978 587.442 315.198C588.203 314.418 589.234 313.98 590.309 313.98C591.384 313.98 592.415 314.418 593.176 315.198C593.936 315.978 594.363 317.035 594.363 318.138V324.744C594.363 325.846 593.936 326.904 593.176 327.684C592.415 328.463 591.384 328.901 590.309 328.901Z" fill="white" stroke="#263238" stroke-linecap="round" stroke-linejoin="round"/>
<path d="M590.725 313.98H589.891V328.901H590.725V313.98Z" fill="#C8B9FC" stroke="#263238" stroke-linecap="round" stroke-linejoin="round"/>
<path d="M635.708 318.138C635.708 315.842 633.893 313.98 631.654 313.98C629.415 313.98 627.6 315.842 627.6 318.138V324.744C627.6 327.04 629.415 328.901 631.654 328.901C633.893 328.901 635.708 327.04 635.708 324.744V318.138Z" fill="white" stroke="#263238" stroke-linecap="round" stroke-linejoin="round"/>
<path d="M632.072 313.98H631.238V328.901H632.072V313.98Z" fill="#C8B9FC" stroke="#263238" stroke-linecap="round" stroke-linejoin="round"/>
<path d="M611.198 312.623C612.626 312.618 614.031 312.248 615.285 311.548C616.54 310.848 617.605 309.839 618.386 308.613L620.154 305.797C617.351 304.206 614.196 303.383 610.992 303.409C607.789 303.435 604.646 304.308 601.868 305.944L604.513 309.335C605.319 310.359 606.337 311.185 607.493 311.754C608.65 312.322 609.915 312.62 611.198 312.623Z" fill="#C8B9FC" stroke="#263238" stroke-linecap="round" stroke-linejoin="round"/>
<path d="M611.341 330.773C611.508 330.773 611.643 330.635 611.643 330.464C611.643 330.293 611.508 330.155 611.341 330.155C611.174 330.155 611.039 330.293 611.039 330.464C611.039 330.635 611.174 330.773 611.341 330.773Z" fill="#263238"/>
<path d="M611.643 331.541C611.639 331.461 611.606 331.386 611.55 331.331C611.493 331.276 611.419 331.246 611.341 331.246C611.302 331.244 611.263 331.25 611.226 331.264C611.19 331.278 611.157 331.299 611.128 331.327C611.1 331.354 611.078 331.388 611.062 331.424C611.047 331.461 611.039 331.501 611.039 331.541C611.039 331.581 611.047 331.621 611.062 331.659C611.077 331.696 611.099 331.731 611.127 331.759C611.155 331.788 611.189 331.811 611.225 331.826C611.262 331.842 611.301 331.85 611.341 331.85C611.381 331.85 611.42 331.842 611.456 331.826C611.493 331.811 611.526 331.788 611.554 331.759C611.582 331.731 611.605 331.696 611.62 331.659C611.635 331.621 611.643 331.581 611.643 331.541Z" fill="#263238"/>
<path d="M610.449 331.378C610.525 331.354 610.589 331.3 610.627 331.229C610.665 331.157 610.673 331.073 610.651 330.995C610.622 330.918 610.566 330.854 610.495 330.817C610.423 330.779 610.341 330.769 610.263 330.789C610.187 330.812 610.123 330.866 610.085 330.938C610.047 331.009 610.039 331.093 610.061 331.171C610.09 331.248 610.146 331.312 610.217 331.35C610.289 331.388 610.371 331.398 610.449 331.378Z" fill="#263238"/>
<path d="M612.333 331.378C612.409 331.354 612.473 331.301 612.51 331.229C612.548 331.157 612.556 331.073 612.534 330.995C612.508 330.916 612.453 330.851 612.38 330.812C612.308 330.774 612.224 330.766 612.146 330.789C612.108 330.801 612.074 330.82 612.044 330.846C612.014 330.872 611.989 330.903 611.972 330.939C611.954 330.975 611.944 331.014 611.942 331.054C611.94 331.094 611.946 331.134 611.959 331.172C611.982 331.25 612.035 331.315 612.105 331.354C612.175 331.392 612.257 331.401 612.333 331.378Z" fill="#263238"/>
<path d="M573.173 157.483H458.781V105.214V91.3542L472.309 105.214H573.173V157.483Z" fill="#C8B9FC" stroke="#263238" stroke-linecap="round" stroke-linejoin="round"/>
<path d="M573.173 233.195H458.781V180.941V167.081L472.309 180.941H573.173V233.195Z" fill="#C8B9FC" stroke="#263238" stroke-linecap="round" stroke-linejoin="round"/>
<path d="M535.162 123.202H562.089" stroke="#263238" stroke-linecap="round" stroke-linejoin="round"/>
<path d="M497.482 123.202H528.247" stroke="#263238" stroke-linecap="round" stroke-linejoin="round"/>
<path d="M474.408 123.202H492.091" stroke="#263238" stroke-linecap="round" stroke-linejoin="round"/>
<path d="M522.856 131.887H562.089" stroke="#263238" stroke-linecap="round" stroke-linejoin="round"/>
<path d="M474.408 131.887H515.941" stroke="#263238" stroke-linecap="round" stroke-linejoin="round"/>
<path d="M554.397 140.556H562.088" stroke="#263238" stroke-linecap="round" stroke-linejoin="round"/>
<path d="M511.326 140.556H548.244" stroke="#263238" stroke-linecap="round" stroke-linejoin="round"/>
<path d="M474.408 140.556H505.173" stroke="#263238" stroke-linecap="round" stroke-linejoin="round"/>
<path d="M535.162 196.555H562.089" stroke="#263238" stroke-linecap="round" stroke-linejoin="round"/>
<path d="M497.482 196.555H528.247" stroke="#263238" stroke-linecap="round" stroke-linejoin="round"/>
<path d="M474.408 196.555H492.091" stroke="#263238" stroke-linecap="round" stroke-linejoin="round"/>
<path d="M522.856 205.24H562.089" stroke="#263238" stroke-linecap="round" stroke-linejoin="round"/>
<path d="M474.408 205.24H515.941" stroke="#263238" stroke-linecap="round" stroke-linejoin="round"/>
<path d="M554.397 213.91H562.088" stroke="#263238" stroke-linecap="round" stroke-linejoin="round"/>
<path d="M511.326 213.91H548.244" stroke="#263238" stroke-linecap="round" stroke-linejoin="round"/>
<path d="M474.408 213.91H505.173" stroke="#263238" stroke-linecap="round" stroke-linejoin="round"/>
<path d="M458.781 446.12H573.173V319.716V305.856L559.645 319.716H458.781V446.12Z" fill="#C8B9FC" stroke="#263238" stroke-linecap="round" stroke-linejoin="round"/>
<path d="M535.162 336.966H562.089" stroke="#263238" stroke-linecap="round" stroke-linejoin="round"/>
<path d="M497.482 336.966H528.247" stroke="#263238" stroke-linecap="round" stroke-linejoin="round"/>
<path d="M474.408 336.966H492.091" stroke="#263238" stroke-linecap="round" stroke-linejoin="round"/>
<path d="M522.856 345.636H562.089" stroke="#263238" stroke-linecap="round" stroke-linejoin="round"/>
<path d="M474.408 345.636H515.941" stroke="#263238" stroke-linecap="round" stroke-linejoin="round"/>
<path d="M554.397 354.321H562.088" stroke="#263238" stroke-linecap="round" stroke-linejoin="round"/>
<path d="M511.326 354.321H548.244" stroke="#263238" stroke-linecap="round" stroke-linejoin="round"/>
<path d="M474.408 354.321H505.173" stroke="#263238" stroke-linecap="round" stroke-linejoin="round"/>
<path d="M535.162 361.413H562.089" stroke="#263238" stroke-linecap="round" stroke-linejoin="round"/>
<path d="M497.482 361.413H528.247" stroke="#263238" stroke-linecap="round" stroke-linejoin="round"/>
<path d="M474.408 361.413H492.091" stroke="#263238" stroke-linecap="round" stroke-linejoin="round"/>
<path d="M522.856 370.097H562.089" stroke="#263238" stroke-linecap="round" stroke-linejoin="round"/>
<path d="M474.408 370.097H515.941" stroke="#263238" stroke-linecap="round" stroke-linejoin="round"/>
<path d="M554.397 378.767H562.088" stroke="#263238" stroke-linecap="round" stroke-linejoin="round"/>
<path d="M511.326 378.767H548.244" stroke="#263238" stroke-linecap="round" stroke-linejoin="round"/>
<path d="M474.408 378.767H505.173" stroke="#263238" stroke-linecap="round" stroke-linejoin="round"/>
<path d="M535.162 385.874H562.089" stroke="#263238" stroke-linecap="round" stroke-linejoin="round"/>
<path d="M497.482 385.874H528.247" stroke="#263238" stroke-linecap="round" stroke-linejoin="round"/>
<path d="M474.408 385.874H492.091" stroke="#263238" stroke-linecap="round" stroke-linejoin="round"/>
<path d="M522.856 394.544H562.089" stroke="#263238" stroke-linecap="round" stroke-linejoin="round"/>
<path d="M474.408 394.544H515.941" stroke="#263238" stroke-linecap="round" stroke-linejoin="round"/>
<path d="M554.397 403.228H562.088" stroke="#263238" stroke-linecap="round" stroke-linejoin="round"/>
<path d="M511.326 403.228H548.244" stroke="#263238" stroke-linecap="round" stroke-linejoin="round"/>
<path d="M474.408 403.228H505.173" stroke="#263238" stroke-linecap="round" stroke-linejoin="round"/>
<path d="M535.162 410.32H562.089" stroke="#263238" stroke-linecap="round" stroke-linejoin="round"/>
<path d="M497.482 410.32H528.247" stroke="#263238" stroke-linecap="round" stroke-linejoin="round"/>
<path d="M474.408 410.32H492.091" stroke="#263238" stroke-linecap="round" stroke-linejoin="round"/>
<path d="M522.856 418.99H562.089" stroke="#263238" stroke-linecap="round" stroke-linejoin="round"/>
<path d="M474.408 418.99H515.941" stroke="#263238" stroke-linecap="round" stroke-linejoin="round"/>
<path d="M554.397 427.674H562.088" stroke="#263238" stroke-linecap="round" stroke-linejoin="round"/>
<path d="M511.326 427.674H548.244" stroke="#263238" stroke-linecap="round" stroke-linejoin="round"/>
<path d="M474.408 427.674H505.173" stroke="#263238" stroke-linecap="round" stroke-linejoin="round"/>
<path d="M610.867 516.407C627.81 516.407 641.545 502.319 641.545 484.942C641.545 467.565 627.81 453.477 610.867 453.477C593.923 453.477 580.188 467.565 580.188 484.942C580.188 502.319 593.923 516.407 610.867 516.407Z" stroke="#263238" stroke-linecap="round" stroke-linejoin="round"/>
<path d="M621.333 494.216C621.335 496.287 620.739 498.312 619.619 500.036C618.5 501.759 616.906 503.103 615.042 503.898C613.177 504.692 611.124 504.902 609.143 504.5C607.162 504.097 605.342 503.101 603.913 501.638C602.484 500.175 601.511 498.309 601.116 496.278C600.721 494.247 600.922 492.141 601.694 490.228C602.466 488.314 603.774 486.678 605.453 485.527C607.132 484.376 609.106 483.762 611.126 483.762C613.83 483.762 616.424 484.863 618.338 486.823C620.252 488.783 621.329 491.442 621.333 494.216Z" fill="#C8B9FC" stroke="#263238" stroke-linecap="round" stroke-linejoin="round"/>
<path d="M625.717 501.19C627.919 498.372 629.3 494.972 629.701 491.384C630.101 487.795 629.505 484.164 627.98 480.908C626.456 477.652 624.066 474.904 621.085 472.981C618.104 471.057 614.654 470.037 611.133 470.037C607.611 470.037 604.161 471.057 601.18 472.981C598.2 474.904 595.809 477.652 594.285 480.908C592.761 484.164 592.164 487.795 592.565 491.384C592.965 494.972 594.346 498.372 596.548 501.19H625.717Z" fill="white" stroke="#263238" stroke-linecap="round" stroke-linejoin="round"/>
<path d="M618.415 495.764H603.377C602.497 495.764 601.626 495.587 600.813 495.241C600.001 494.896 599.262 494.39 598.64 493.752C598.018 493.114 597.524 492.356 597.188 491.523C596.851 490.689 596.678 489.796 596.678 488.893C596.678 487.071 597.384 485.323 598.64 484.035C599.896 482.746 601.6 482.022 603.377 482.022H618.415C620.191 482.022 621.895 482.746 623.152 484.035C624.408 485.323 625.114 487.071 625.114 488.893C625.114 490.716 624.408 492.463 623.152 493.752C621.895 495.04 620.191 495.764 618.415 495.764Z" fill="#C8B9FC" stroke="#263238" stroke-linecap="round" stroke-linejoin="round"/>
<path d="M599.754 488.333C600.062 487.448 600.623 486.68 601.365 486.128C602.106 485.576 602.993 485.268 603.909 485.242C604.825 485.217 605.726 485.476 606.496 485.985C607.266 486.495 607.867 487.231 608.221 488.097" stroke="#263238" stroke-width="2" stroke-linecap="round" stroke-linejoin="round"/>
<path d="M613.857 488.333C614.165 487.448 614.727 486.68 615.468 486.128C616.21 485.576 617.096 485.268 618.012 485.242C618.928 485.217 619.829 485.476 620.599 485.985C621.369 486.495 621.97 487.231 622.325 488.097" stroke="#263238" stroke-width="2" stroke-linecap="round" stroke-linejoin="round"/>
<path d="M608.667 491.518C608.734 492.166 609.032 492.765 609.505 493.201C609.977 493.637 610.59 493.878 611.226 493.878C611.861 493.878 612.474 493.637 612.947 493.201C613.419 492.765 613.717 492.166 613.785 491.518H608.667Z" fill="white" stroke="#263238" stroke-linecap="round" stroke-linejoin="round"/>
<path d="M635.292 492.609C634.774 492.609 634.276 492.398 633.91 492.022C633.543 491.646 633.337 491.136 633.337 490.604V486.063C633.337 485.531 633.543 485.021 633.91 484.645C634.276 484.269 634.774 484.057 635.292 484.057C635.811 484.057 636.308 484.269 636.675 484.645C637.041 485.021 637.247 485.531 637.247 486.063V490.619C637.244 491.148 637.036 491.654 636.67 492.027C636.303 492.4 635.808 492.609 635.292 492.609Z" fill="#263238" stroke="#263238" stroke-linecap="round" stroke-linejoin="round"/>
<path d="M586.442 492.609C585.923 492.609 585.426 492.398 585.059 492.022C584.693 491.646 584.487 491.136 584.487 490.604V486.063C584.487 485.531 584.693 485.021 585.059 484.645C585.426 484.269 585.923 484.057 586.442 484.057C586.96 484.057 587.458 484.269 587.824 484.645C588.191 485.021 588.397 485.531 588.397 486.063V490.619C588.393 491.148 588.186 491.654 587.819 492.027C587.453 492.4 586.958 492.609 586.442 492.609Z" fill="#263238" stroke="#263238" stroke-linecap="round" stroke-linejoin="round"/>
<path d="M590.05 486.343C589.507 486.339 588.988 486.115 588.605 485.72C588.223 485.325 588.008 484.791 588.008 484.234V480.917C588.004 477.338 589.046 473.841 590.999 470.876C591.322 470.461 591.785 470.187 592.297 470.107C592.808 470.028 593.33 470.149 593.758 470.447C594.187 470.744 594.49 471.197 594.607 471.714C594.724 472.231 594.647 472.774 594.391 473.235C592.896 475.503 592.1 478.179 592.106 480.917V484.234C592.106 484.793 591.889 485.33 591.503 485.725C591.118 486.121 590.595 486.343 590.05 486.343Z" fill="#263238"/>
<path d="M629.757 473.117C629.591 473.116 629.427 473.073 629.28 472.994C629.132 472.914 629.005 472.8 628.909 472.66C627.593 470.642 625.811 468.989 623.722 467.846C621.633 466.704 619.301 466.109 616.934 466.114H605.519C603.155 466.115 600.826 466.712 598.739 467.85C596.651 468.989 594.867 470.635 593.544 472.645C593.391 472.876 593.156 473.035 592.889 473.088C592.622 473.14 592.346 473.082 592.121 472.926C591.896 472.769 591.74 472.527 591.689 472.254C591.638 471.98 591.695 471.697 591.847 471.466C593.348 469.156 595.381 467.262 597.765 465.95C600.15 464.639 602.813 463.95 605.519 463.946H616.934C619.638 463.947 622.3 464.629 624.686 465.933C627.073 467.236 629.11 469.121 630.62 471.422C630.698 471.537 630.752 471.667 630.78 471.805C630.807 471.942 630.808 472.084 630.781 472.221C630.754 472.359 630.7 472.489 630.623 472.605C630.546 472.721 630.448 472.82 630.333 472.896C630.167 473.028 629.967 473.105 629.757 473.117Z" fill="#263238"/>
<path d="M632.403 486.343C631.858 486.343 631.335 486.12 630.949 485.725C630.564 485.33 630.347 484.793 630.347 484.234V480.917C630.35 478.184 629.554 475.513 628.061 473.25C627.904 473.02 627.794 472.761 627.735 472.488C627.677 472.214 627.673 471.931 627.722 471.656C627.772 471.38 627.875 471.118 628.024 470.883C628.174 470.649 628.367 470.447 628.594 470.291C628.82 470.134 629.075 470.025 629.342 469.97C629.61 469.916 629.886 469.916 630.154 469.972C630.421 470.028 630.675 470.138 630.901 470.296C631.127 470.453 631.32 470.655 631.468 470.89C633.417 473.852 634.453 477.344 634.444 480.917V484.234C634.444 484.791 634.23 485.325 633.847 485.72C633.465 486.115 632.946 486.339 632.403 486.343Z" fill="#263238"/>
<path d="M590.309 495.602C589.234 495.602 588.203 495.164 587.442 494.384C586.682 493.604 586.255 492.547 586.255 491.444V484.824C586.255 483.721 586.682 482.663 587.442 481.884C588.203 481.104 589.234 480.666 590.309 480.666C591.384 480.666 592.415 481.104 593.176 481.884C593.936 482.663 594.363 483.721 594.363 484.824V491.444C594.359 492.546 593.931 493.601 593.172 494.38C592.412 495.159 591.383 495.598 590.309 495.602Z" fill="white" stroke="#263238" stroke-linecap="round" stroke-linejoin="round"/>
<path d="M590.725 480.666H589.891V495.587H590.725V480.666Z" fill="#C8B9FC" stroke="#263238" stroke-linecap="round" stroke-linejoin="round"/>
<path d="M635.708 484.824C635.708 482.527 633.893 480.666 631.654 480.666C629.415 480.666 627.6 482.527 627.6 484.824V491.429C627.6 493.726 629.415 495.587 631.654 495.587C633.893 495.587 635.708 493.726 635.708 491.429V484.824Z" fill="white" stroke="#263238" stroke-linecap="round" stroke-linejoin="round"/>
<path d="M632.072 480.666H631.238V495.587H632.072V480.666Z" fill="#C8B9FC" stroke="#263238" stroke-linecap="round" stroke-linejoin="round"/>
<path d="M611.198 479.309C612.626 479.303 614.031 478.934 615.285 478.234C616.54 477.534 617.605 476.525 618.386 475.299L620.154 472.497C617.35 470.911 614.196 470.09 610.994 470.113C607.792 470.137 604.649 471.003 601.868 472.63L604.513 476.021C605.319 477.045 606.337 477.871 607.493 478.44C608.65 479.008 609.915 479.306 611.198 479.309Z" fill="#C8B9FC" stroke="#263238" stroke-linecap="round" stroke-linejoin="round"/>
<path d="M611.341 497.459C611.508 497.459 611.643 497.32 611.643 497.15C611.643 496.979 611.508 496.84 611.341 496.84C611.174 496.84 611.039 496.979 611.039 497.15C611.039 497.32 611.174 497.459 611.341 497.459Z" fill="#263238"/>
<path d="M611.341 498.55C611.508 498.55 611.643 498.412 611.643 498.241C611.643 498.07 611.508 497.932 611.341 497.932C611.174 497.932 611.039 498.07 611.039 498.241C611.039 498.412 611.174 498.55 611.341 498.55Z" fill="#263238"/>
<path d="M610.45 498.063C610.526 498.04 610.59 497.986 610.627 497.914C610.665 497.843 610.673 497.759 610.651 497.68C610.622 497.604 610.566 497.54 610.495 497.502C610.424 497.464 610.341 497.454 610.263 497.474C610.189 497.501 610.127 497.555 610.09 497.626C610.053 497.697 610.043 497.779 610.062 497.857C610.073 497.897 610.092 497.935 610.118 497.967C610.144 498 610.176 498.026 610.213 498.045C610.249 498.065 610.289 498.076 610.329 498.079C610.37 498.082 610.411 498.077 610.45 498.063Z" fill="#263238"/>
<path d="M612.333 498.064C612.409 498.04 612.473 497.986 612.51 497.915C612.548 497.843 612.556 497.759 612.534 497.681C612.508 497.602 612.453 497.536 612.38 497.498C612.308 497.46 612.224 497.451 612.146 497.475C612.108 497.486 612.074 497.506 612.044 497.531C612.014 497.557 611.989 497.589 611.972 497.625C611.954 497.661 611.944 497.7 611.942 497.74C611.94 497.78 611.946 497.82 611.959 497.858C611.969 497.897 611.986 497.935 612.011 497.967C612.036 497.999 612.066 498.026 612.102 498.045C612.137 498.065 612.175 498.076 612.215 498.08C612.255 498.083 612.295 498.077 612.333 498.064Z" fill="#263238"/>
<path d="M458.781 561.008H573.173V486.402V472.542L559.645 486.402H458.781V561.008Z" fill="#C8B9FC" stroke="#263238" stroke-linecap="round" stroke-linejoin="round"/>
<path d="M535.162 503.652H562.089" stroke="#263238" stroke-linecap="round" stroke-linejoin="round"/>
<path d="M497.482 503.652H528.247" stroke="#263238" stroke-linecap="round" stroke-linejoin="round"/>
<path d="M474.408 503.652H492.091" stroke="#263238" stroke-linecap="round" stroke-linejoin="round"/>
<path d="M522.856 512.337H562.089" stroke="#263238" stroke-linecap="round" stroke-linejoin="round"/>
<path d="M474.408 512.337H515.941" stroke="#263238" stroke-linecap="round" stroke-linejoin="round"/>
<path d="M554.397 521.006H562.088" stroke="#263238" stroke-linecap="round" stroke-linejoin="round"/>
<path d="M511.326 521.006H548.244" stroke="#263238" stroke-linecap="round" stroke-linejoin="round"/>
<path d="M474.408 521.006H505.173" stroke="#263238" stroke-linecap="round" stroke-linejoin="round"/>
<path d="M535.162 528.114H562.089" stroke="#263238" stroke-linecap="round" stroke-linejoin="round"/>
<path d="M497.482 528.114H528.247" stroke="#263238" stroke-linecap="round" stroke-linejoin="round"/>
<path d="M474.408 528.114H492.091" stroke="#263238" stroke-linecap="round" stroke-linejoin="round"/>
<path d="M522.856 536.783H562.089" stroke="#263238" stroke-linecap="round" stroke-linejoin="round"/>
<path d="M474.408 536.783H515.941" stroke="#263238" stroke-linecap="round" stroke-linejoin="round"/>
<path d="M554.397 545.453H562.088" stroke="#263238" stroke-linecap="round" stroke-linejoin="round"/>
<path d="M511.326 545.453H548.244" stroke="#263238" stroke-linecap="round" stroke-linejoin="round"/>
<path d="M474.408 545.453H505.173" stroke="#263238" stroke-linecap="round" stroke-linejoin="round"/>
<path d="M630.778 35.7382H571.505C570.883 39.109 569.134 42.1519 566.56 44.3426C563.986 46.5333 560.747 47.7348 557.402 47.7401H472.439C469.094 47.7348 465.855 46.5333 463.281 44.3426C460.707 42.1519 458.958 39.109 458.336 35.7382H399.063C394.106 35.7382 389.352 37.7576 385.848 41.3523C382.343 44.9469 380.374 49.8223 380.374 54.9059V569.486C380.374 574.57 382.343 579.445 385.848 583.04C389.352 586.635 394.106 588.654 399.063 588.654H630.778C635.735 588.654 640.488 586.635 643.993 583.04C647.498 579.445 649.467 574.57 649.467 569.486V54.9059C649.467 49.8223 647.498 44.9469 643.993 41.3523C640.488 37.7576 635.735 35.7382 630.778 35.7382V35.7382Z" stroke="#263238" stroke-width="2" stroke-linecap="round" stroke-linejoin="round"/>
<path d="M649.481 70.4608V54.9202C649.481 52.403 648.998 49.9105 648.059 47.585C647.12 45.2595 645.743 43.1464 644.008 41.3665C642.272 39.5866 640.212 38.1748 637.944 37.2115C635.677 36.2482 633.247 35.7524 630.792 35.7524H571.505C570.883 39.1233 569.134 42.1661 566.56 44.3568C563.986 46.5476 560.747 47.7491 557.402 47.7544H472.439C469.094 47.7491 465.855 46.5476 463.281 44.3568C460.707 42.1661 458.958 39.1233 458.336 35.7524H399.063C394.106 35.7524 389.352 37.7719 385.848 41.3665C382.343 44.9612 380.374 49.8366 380.374 54.9202V70.4608H649.481Z" stroke="#263238" stroke-width="2" stroke-linecap="round" stroke-linejoin="round"/>
<path d="M405.029 49.6274C405.029 53.402 400.889 54.7585 400.874 57.6336V57.8253H404.885V59.1081H399.537V58.0317C399.537 53.9918 403.663 53.1956 403.663 49.6864C403.663 48.3889 403.246 47.7106 402.226 47.7106C401.205 47.7106 400.788 48.4479 400.788 49.5537V50.6595H399.523V49.6274C399.523 47.7106 400.371 46.4426 402.254 46.4426C404.138 46.4426 405.029 47.7106 405.029 49.6274Z" fill="#263238"/>
<path d="M411.699 49.6271V49.9515C411.76 50.4808 411.654 51.0164 411.395 51.4786C411.136 51.9408 410.738 52.3049 410.261 52.517C410.743 52.7304 411.145 53.0992 411.404 53.5675C411.663 54.0358 411.767 54.578 411.699 55.112V56.0704C411.699 57.9872 410.836 59.2404 408.953 59.2404C407.07 59.2404 406.207 57.9872 406.207 56.0704V55.2152H407.487V56.1589C407.487 57.2942 407.932 57.9724 408.924 57.9724C409.916 57.9724 410.362 57.3089 410.362 56.0409V55.0825C410.362 53.844 409.844 53.2542 408.824 53.21H408.09V51.9714H408.896C409.107 51.9746 409.316 51.93 409.509 51.8407C409.701 51.7515 409.872 51.6198 410.009 51.4551C410.147 51.2904 410.247 51.0967 410.303 50.8878C410.359 50.6789 410.369 50.4599 410.333 50.2463V49.6271C410.333 48.3443 409.887 47.6808 408.896 47.6808C407.904 47.6808 407.458 48.3738 407.458 49.5091V50.1579H406.178V49.6271C406.178 47.7103 407.055 46.4718 408.924 46.4718C410.793 46.4718 411.699 47.6956 411.699 49.6271Z" fill="#263238"/>
<path d="M414.33 50.5562V52.296H413.022V50.5562H414.33ZM414.33 57.3681V59.1079H413.022V57.3681H414.33Z" fill="#263238"/>
<path d="M417.09 51.6767C417.269 51.349 417.533 51.0789 417.853 50.8966C418.173 50.7143 418.536 50.627 418.902 50.6446C420.469 50.6446 421.173 51.8242 421.173 53.5935V56.041C421.173 57.9578 420.282 59.2111 418.413 59.2111C416.544 59.2111 415.681 57.9578 415.681 56.041V55.2006H416.903V56.1295C416.903 57.2648 417.363 57.9431 418.341 57.9431C419.319 57.9431 419.779 57.2648 419.779 56.1295V53.7262C419.779 52.5909 419.333 51.9126 418.341 51.9126C418.159 51.894 417.974 51.9149 417.8 51.974C417.626 52.0331 417.467 52.1289 417.331 52.2554C417.195 52.3819 417.087 52.5362 417.014 52.7083C416.94 52.8804 416.902 53.0664 416.903 53.2544V53.5345H415.624L415.954 46.5899H420.771V47.8432H417.176L417.09 51.6767Z" fill="#263238"/>
<path d="M427.944 49.6274V49.8634H426.679V49.539C426.679 48.4184 426.219 47.7549 425.241 47.7549C424.264 47.7549 423.804 48.4331 423.804 49.7749V52.5763C423.944 52.1628 424.213 51.8078 424.568 51.5655C424.924 51.3232 425.347 51.207 425.773 51.2346C427.34 51.2346 428.045 52.3846 428.045 54.1835V56.0708C428.045 57.9875 427.125 59.2408 425.256 59.2408C423.387 59.2408 422.452 57.9875 422.452 56.0708V49.6274C422.452 47.6369 423.315 46.3984 425.256 46.3984C427.196 46.3984 427.944 47.6812 427.944 49.6274ZM423.746 54.3162V56.1887C423.746 57.324 424.206 58.0023 425.184 58.0023C426.161 58.0023 426.621 57.324 426.621 56.1887V54.2719C426.621 53.1514 426.147 52.4731 425.184 52.4731C424.221 52.4731 423.746 53.1514 423.746 54.2719V54.3162Z" fill="#263238"/>
<path d="M578.621 50.1436H575.171V58.9755H578.621V50.1436Z" fill="#263238"/>
<path d="M583.221 48.374H579.771V58.9753H583.221V48.374Z" fill="#263238"/>
<path d="M587.807 47.1209H584.357V58.9755H587.807V47.1209Z" fill="#263238"/>
<path d="M592.408 44.9238H588.958V58.9753H592.408V44.9238Z" fill="#263238"/>
<path d="M635.033 58.7245H614.36V45.7789H635.033V58.7245ZM615.51 57.5597H633.883V46.9585H615.51V57.5597Z" fill="#263238"/>
<path d="M628.147 48.2414H617.235V56.2771H628.147V48.2414Z" fill="#263238"/>
<path d="M636.916 50.7334H634.314V53.7856H636.916V50.7334Z" fill="#263238"/>
<path d="M606.784 55.9085C606.648 55.911 606.514 55.8753 606.396 55.8053C602.183 53.2398 599.409 55.6136 599.294 55.7168C599.219 55.7948 599.129 55.856 599.03 55.8968C598.931 55.9376 598.825 55.957 598.718 55.9538C598.612 55.9506 598.507 55.9249 598.41 55.8782C598.314 55.8316 598.227 55.7651 598.157 55.6828C598.087 55.6005 598.034 55.5042 598.001 55.3999C597.969 55.2956 597.958 55.1856 597.969 55.0767C597.98 54.9678 598.012 54.8624 598.065 54.7671C598.117 54.6717 598.188 54.5885 598.273 54.5225C598.417 54.3898 601.982 51.264 607.186 54.4341C607.358 54.5465 607.481 54.7229 607.53 54.9262C607.578 55.1296 607.548 55.3442 607.445 55.5251C607.377 55.6428 607.281 55.7401 607.164 55.8074C607.048 55.8746 606.917 55.9095 606.784 55.9085Z" fill="#263238"/>
<path d="M608.337 53.2546C608.199 53.2519 608.065 53.2111 607.948 53.1366C601.867 49.4358 597.77 53.0187 597.727 53.0482C597.651 53.1159 597.564 53.1678 597.469 53.2008C597.374 53.2337 597.273 53.2472 597.173 53.2403C597.073 53.2335 596.975 53.2065 596.885 53.1608C596.795 53.1152 596.715 53.0519 596.649 52.9744C596.583 52.897 596.532 52.8069 596.5 52.7095C596.468 52.612 596.455 52.5089 596.461 52.4062C596.468 52.3036 596.494 52.2032 596.539 52.111C596.583 52.0187 596.645 51.9364 596.721 51.8686C596.721 51.8686 601.695 47.4453 608.739 51.7801C608.914 51.89 609.04 52.0665 609.088 52.2709C609.136 52.4754 609.104 52.6912 608.998 52.8712C608.929 52.9879 608.832 53.0844 608.716 53.1515C608.6 53.2187 608.47 53.2541 608.337 53.2546Z" fill="#263238"/>
<path d="M609.76 50.1729C609.618 50.17 609.479 50.1293 609.357 50.0549C601.652 45.3662 596.534 49.7895 596.318 50.0549C596.162 50.1761 595.966 50.2321 595.771 50.2116C595.576 50.1911 595.396 50.0956 595.266 49.9443C595.137 49.7931 595.069 49.5973 595.074 49.3963C595.08 49.1952 595.16 49.0039 595.297 48.8606C595.369 48.8606 601.45 43.4641 610.148 48.7722C610.236 48.8254 610.312 48.8958 610.374 48.9795C610.435 49.0631 610.48 49.1583 610.505 49.2597C610.53 49.361 610.536 49.4665 610.522 49.57C610.507 49.6736 610.473 49.7732 610.421 49.8633C610.343 49.9654 610.242 50.0468 610.127 50.1006C610.012 50.1545 609.886 50.1793 609.76 50.1729Z" fill="#263238"/>
<path d="M604.455 57.2353C604.458 57.6302 604.346 58.0171 604.134 58.3467C603.922 58.6762 603.619 58.9337 603.264 59.0861C602.909 59.2386 602.517 59.2793 602.14 59.2029C601.762 59.1266 601.415 58.9367 601.142 58.6575C600.87 58.3782 600.685 58.0222 600.611 57.6347C600.536 57.2472 600.576 56.8458 600.724 56.4815C600.873 56.1172 601.124 55.8064 601.445 55.5889C601.767 55.3713 602.144 55.2566 602.529 55.2595C603.04 55.2595 603.53 55.4677 603.891 55.8382C604.252 56.2088 604.455 56.7113 604.455 57.2353Z" fill="#263238"/>
<path d="M627.974 612.142H658.164" stroke="#263238" stroke-linecap="round" stroke-linejoin="round"/>
<path d="M58.6776 612.142H617.911" stroke="#263238" stroke-linecap="round" stroke-linejoin="round"/>
<path d="M19.3589 612.142H39.9887" stroke="#263238" stroke-linecap="round" stroke-linejoin="round"/>
<path d="M226.418 413.579H204.451V609.385H226.418V413.579Z" fill="#263238" stroke="#263238" stroke-linecap="round" stroke-linejoin="round"/>
<path d="M52.237 484.485V498.256H139.788V484.485H52.237Z" fill="#263238" stroke="#263238" stroke-linecap="round" stroke-linejoin="round"/>
<path d="M61.2366 436.949H47.8092V492.049H61.2366V436.949Z" fill="#263238" stroke="#263238" stroke-linecap="round" stroke-linejoin="round"/>
<path d="M66.8283 492.27C66.8283 495.617 65.5318 498.827 63.224 501.194C60.9161 503.561 57.786 504.891 54.5223 504.891C54.1198 504.891 53.7172 504.891 53.3291 504.891C51.0899 504.664 48.9544 503.812 47.1546 502.427C45.3548 501.042 43.9596 499.177 43.1209 497.036C42.2821 494.895 42.0318 492.558 42.3972 490.281C42.7626 488.004 43.7297 485.874 45.1933 484.121C46.657 482.368 48.5611 481.061 50.6988 480.34C52.8364 479.62 55.1257 479.515 57.3176 480.036C59.5096 480.556 61.5204 481.684 63.1313 483.295C64.7422 484.906 65.8916 486.939 66.4545 489.173C66.6991 490.187 66.8246 491.226 66.8283 492.27Z" fill="white" stroke="#263238" stroke-linecap="round" stroke-linejoin="round"/>
<path d="M67.7343 445.442C67.7267 448.785 66.4273 451.989 64.1207 454.352C61.8141 456.715 58.6884 458.044 55.4283 458.048C55.0258 458.048 54.6232 458.048 54.2207 458.048C51.9807 457.822 49.8441 456.97 48.0435 455.584C46.2429 454.199 44.8472 452.334 44.0083 450.192C43.1694 448.05 42.9194 445.712 43.2855 443.435C43.6517 441.157 44.6199 439.026 46.0849 437.273C47.5498 435.521 49.4554 434.214 51.5943 433.494C53.7331 432.775 56.0233 432.672 58.2156 433.195C60.408 433.718 62.4184 434.847 64.0283 436.461C65.6382 438.074 66.7857 440.109 67.3462 442.345C67.604 443.356 67.7345 444.397 67.7343 445.442Z" fill="white" stroke="#263238" stroke-linecap="round" stroke-linejoin="round"/>
<path d="M89.774 411.23L71.8757 421.114L75.5833 428.177L93.4816 418.293L89.774 411.23Z" fill="#263238" stroke="#263238" stroke-linecap="round" stroke-linejoin="round"/>
<path d="M96.4434 419.064L87.6882 423.929L81.9377 413.21L90.7647 408.33C91.4567 407.943 92.2171 407.701 93.0012 407.619C93.7853 407.538 94.5775 407.617 95.3313 407.853C96.0851 408.089 96.7854 408.477 97.3911 408.995C97.9967 409.512 98.4956 410.148 98.8586 410.866C99.5855 412.284 99.7397 413.938 99.2879 415.472C98.836 417.006 97.8144 418.296 96.4434 419.064Z" fill="white" stroke="#263238" stroke-linecap="round" stroke-linejoin="round"/>
<path d="M57.8144 373.592L57.1818 410.999L49.3755 410.866L49.9937 373.474L57.8144 373.592Z" fill="#263238" stroke="#263238" stroke-linecap="round" stroke-linejoin="round"/>
<path d="M59.9283 371.351L59.7701 381.672L47.8954 381.377L48.0535 371.056C48.0666 370.256 48.2332 369.467 48.5438 368.733C48.8543 368 49.3028 367.336 49.8635 366.78C50.4242 366.224 51.0861 365.787 51.8116 365.494C52.5371 365.2 53.3118 365.056 54.0915 365.07C54.8793 365.081 55.6569 365.254 56.3789 365.577C57.1009 365.9 57.7528 366.368 58.2963 366.953C58.8399 367.538 59.2642 368.228 59.5444 368.983C59.8246 369.738 59.9551 370.543 59.9283 371.351Z" fill="white" stroke="#263238" stroke-linecap="round" stroke-linejoin="round"/>
<path d="M87.0268 387.172L69.876 420.17L62.9755 416.41L80.1119 383.412L87.0268 387.172Z" fill="#263238" stroke="#263238" stroke-linecap="round" stroke-linejoin="round"/>
<path d="M89.9022 386.155L85.2011 395.223L74.7496 389.516L79.4363 380.434C80.1778 379.008 81.44 377.943 82.9464 377.47C84.4528 376.997 86.0804 377.157 87.4726 377.913C88.8574 378.678 89.8904 379.975 90.3457 381.519C90.801 383.064 90.6415 384.73 89.9022 386.155Z" fill="white" stroke="#263238" stroke-linecap="round" stroke-linejoin="round"/>
<path d="M30.0975 387.024L47.0901 420.111L40.1752 423.856L23.1826 390.77L30.0975 387.024Z" fill="#263238" stroke="#263238" stroke-linecap="round" stroke-linejoin="round"/>
<path d="M45.9978 411.013C45.7458 409.483 45.0568 408.064 44.018 406.935C42.9792 405.807 41.6374 405.019 40.1622 404.673C38.6871 404.327 37.145 404.438 35.7311 404.991C34.3171 405.544 33.095 406.515 32.2192 407.78C31.3435 409.046 30.8535 410.55 30.8113 412.101C30.7691 413.652 31.1767 415.182 31.9823 416.496C32.7879 417.809 33.9554 418.849 35.3371 419.482C36.7188 420.115 38.2525 420.313 39.7442 420.052C41.7412 419.702 43.5213 418.554 44.6937 416.859C45.8662 415.165 46.3352 413.062 45.9978 411.013Z" fill="white" stroke="#263238" stroke-linecap="round" stroke-linejoin="round"/>
<path d="M53.5157 412.046C57.7396 412.046 61.1638 408.534 61.1638 404.202C61.1638 399.87 57.7396 396.358 53.5157 396.358C49.2917 396.358 45.8676 399.87 45.8676 404.202C45.8676 408.534 49.2917 412.046 53.5157 412.046Z" fill="white" stroke="#263238" stroke-linecap="round" stroke-linejoin="round"/>
<path d="M78.4736 408.728C78.7037 407.194 78.4851 405.625 77.8454 404.219C77.2056 402.812 76.1736 401.632 74.8797 400.827C73.5858 400.023 72.0884 399.63 70.5767 399.699C69.0651 399.767 67.6072 400.294 66.3876 401.212C65.168 402.131 64.2415 403.4 63.7252 404.859C63.209 406.317 63.1262 407.9 63.4874 409.407C63.8486 410.914 64.6375 412.278 65.7544 413.325C66.8712 414.372 68.2658 415.055 69.7616 415.289C70.7538 415.446 71.7666 415.401 72.7418 415.156C73.717 414.912 74.6355 414.472 75.4447 413.862C76.254 413.253 76.9381 412.486 77.4578 411.605C77.9775 410.724 78.3227 409.746 78.4736 408.728Z" fill="white" stroke="#263238" stroke-linecap="round" stroke-linejoin="round"/>
<path d="M30.888 384.002L35.5746 393.085L25.08 398.791L20.3934 389.693C20.0273 388.987 19.8009 388.214 19.7271 387.417C19.6533 386.621 19.7335 385.817 19.9633 385.053C20.193 384.288 20.5678 383.578 21.0659 382.963C21.564 382.347 22.1758 381.838 22.8661 381.466C24.2586 380.716 25.8841 380.561 27.3872 381.037C28.8904 381.512 30.149 382.578 30.888 384.002Z" fill="white" stroke="#263238" stroke-linecap="round" stroke-linejoin="round"/>
<path d="M77.0069 426.157C77.0069 432.022 74.735 437.648 70.6909 441.795C66.6468 445.943 61.1618 448.273 55.4426 448.273C54.7238 448.273 54.005 448.273 53.3293 448.185C49.4066 447.786 45.6655 446.292 42.5127 443.865C39.3599 441.438 36.916 438.172 35.4465 434.42C33.9771 430.669 33.5384 426.576 34.1782 422.587C34.8179 418.597 36.5116 414.864 39.0751 411.793C41.6386 408.722 44.9739 406.43 48.7185 405.167C52.463 403.903 56.4736 403.717 60.3142 404.628C64.1548 405.538 67.6785 407.511 70.5024 410.332C73.3263 413.153 75.3423 416.714 76.3312 420.627C76.7771 422.435 77.004 424.292 77.0069 426.157Z" fill="white" stroke="#263238" stroke-linecap="round" stroke-linejoin="round"/>
<path d="M77.0069 426.156C77.0069 432.022 74.7349 437.647 70.6908 441.795C66.6468 445.942 61.1618 448.273 55.4426 448.273C54.7238 448.273 54.005 448.273 53.3293 448.184C52.5031 444.912 52.4193 441.489 53.0843 438.178C53.7492 434.867 55.1453 431.757 57.1652 429.086C59.1851 426.415 61.7751 424.254 64.7362 422.77C67.6973 421.285 70.9508 420.517 74.2466 420.524C74.9511 420.524 75.6843 420.524 76.3599 420.627C76.7961 422.436 77.0134 424.293 77.0069 426.156Z" fill="white" stroke="#263238" stroke-linecap="round" stroke-linejoin="round"/>
<path d="M185.593 492.693C189.254 476.644 179.538 460.591 163.89 456.835C148.243 453.08 132.59 463.046 128.929 479.094C125.267 495.142 134.984 511.196 150.631 514.951C166.278 518.706 181.931 508.741 185.593 492.693Z" fill="white" stroke="#263238" stroke-linecap="round" stroke-linejoin="round"/>
<path d="M162.671 499.221C169.86 496.146 173.257 487.676 170.259 480.303C167.261 472.93 159.002 469.446 151.814 472.521C144.625 475.596 141.228 484.066 144.226 491.439C147.225 498.812 155.483 502.296 162.671 499.221Z" fill="#263238" stroke="#263238" stroke-linecap="round" stroke-linejoin="round"/>
<path d="M152.252 612.143H281.35L283.205 603.178C283.95 599.603 283.288 595.872 281.362 592.795C279.437 589.719 276.405 587.547 272.926 586.753C254.625 582.536 215.004 581.017 215.004 581.017C205.458 581.327 178.891 582.492 160.59 586.768C157.128 587.578 154.115 589.755 152.205 592.826C150.295 595.897 149.641 599.616 150.383 603.178L152.252 612.143Z" fill="white" stroke="#263238" stroke-linecap="round" stroke-linejoin="round"/>
<path d="M247.883 583.199C231.336 581.636 215.004 581.017 215.004 581.017C208.995 581.209 196.229 581.754 183.032 583.199C186.884 596.691 199.938 606.628 215.45 606.628C230.962 606.628 244.015 596.646 247.883 583.199Z" fill="#C8B9FC" stroke="#263238" stroke-linecap="round" stroke-linejoin="round"/>
<path d="M350.299 548.909L358.329 537.872L288.16 484.171L280.13 495.208L350.299 548.909Z" fill="#263238" stroke="#263238" stroke-linecap="round" stroke-linejoin="round"/>
<path d="M315.365 581.498L326.127 589.734L358.256 545.573L347.494 537.338L315.365 581.498Z" fill="#263238" stroke="#263238" stroke-linecap="round" stroke-linejoin="round"/>
<path d="M343.139 533.717C344.107 532.386 345.321 531.264 346.712 530.414C348.104 529.565 349.644 529.005 351.246 528.767C352.849 528.529 354.481 528.617 356.05 529.026C357.619 529.435 359.094 530.157 360.39 531.151L361.325 531.932C362.988 533.488 364.203 535.481 364.838 537.695C365.473 539.909 365.504 542.26 364.927 544.491C364.351 546.722 363.189 548.748 361.568 550.349C359.947 551.95 357.928 553.064 355.733 553.571C353.537 554.077 351.249 553.957 349.115 553.222C346.982 552.488 345.086 551.167 343.633 549.404C342.18 547.642 341.227 545.504 340.876 543.224C340.525 540.944 340.791 538.61 341.644 536.474C342.03 535.495 342.532 534.569 343.139 533.717Z" fill="white" stroke="#263238" stroke-linecap="round" stroke-linejoin="round"/>
<path d="M315.062 569C316.884 566.241 319.695 564.332 322.883 563.689C326.071 563.046 329.377 563.72 332.083 565.565C332.414 565.801 332.73 566.051 333.046 566.302C334.782 567.771 336.092 569.701 336.833 571.88C337.574 574.06 337.718 576.406 337.249 578.663C336.781 580.921 335.717 583.004 334.175 584.685C332.633 586.366 330.671 587.581 328.502 588.198C326.333 588.815 324.041 588.81 321.875 588.184C319.709 587.558 317.751 586.334 316.216 584.647C314.68 582.959 313.625 580.872 313.166 578.613C312.706 576.353 312.86 574.007 313.61 571.831C313.976 570.829 314.464 569.878 315.062 569Z" fill="white" stroke="#263238" stroke-linecap="round" stroke-linejoin="round"/>
<path d="M278.115 584.786L298.345 586.824L299.11 578.841L278.879 576.803L278.115 584.786Z" fill="#263238" stroke="#263238" stroke-linecap="round" stroke-linejoin="round"/>
<path d="M276.879 574.529L286.856 575.532L285.692 587.652L275.715 586.649C274.148 586.492 272.705 585.704 271.705 584.457C270.705 583.21 270.229 581.606 270.381 579.999C270.537 578.391 271.309 576.912 272.527 575.886C273.745 574.861 275.31 574.373 276.879 574.529Z" fill="white" stroke="#263238" stroke-linecap="round" stroke-linejoin="round"/>
<path d="M296.862 579.69C298.442 577.275 300.471 575.203 302.833 573.593C305.195 571.984 307.843 570.867 310.626 570.309C313.408 569.75 316.271 569.76 319.051 570.337C321.83 570.915 324.471 572.049 326.822 573.674C327.412 574.087 327.972 574.515 328.519 574.957C331.556 577.534 333.847 580.915 335.142 584.733C336.437 588.551 336.687 592.66 335.864 596.614C335.042 600.567 333.179 604.214 330.477 607.158C327.776 610.102 324.339 612.23 320.541 613.311C316.743 614.392 312.729 614.384 308.934 613.29C305.14 612.195 301.711 610.054 299.02 607.101C296.328 604.147 294.478 600.494 293.669 596.537C292.86 592.58 293.124 588.472 294.433 584.659C295.032 582.903 295.849 581.233 296.862 579.69Z" fill="white" stroke="#263238" stroke-linecap="round" stroke-linejoin="round"/>
<path d="M273.63 602.662L300.37 582.152L304.668 588.035L277.929 608.53L273.63 602.662Z" fill="#263238" stroke="#263238" stroke-linecap="round" stroke-linejoin="round"/>
<path d="M270.855 602.352L278.201 596.705L284.728 605.552L277.454 611.273C276.3 612.158 274.851 612.537 273.425 612.327C271.999 612.117 270.713 611.335 269.849 610.152C269.415 609.572 269.097 608.911 268.912 608.205C268.728 607.499 268.681 606.762 268.775 606.038C268.868 605.314 269.1 604.615 269.457 603.983C269.814 603.35 270.289 602.796 270.855 602.352Z" fill="white" stroke="#263238" stroke-linecap="round" stroke-linejoin="round"/>
<path d="M308.162 588.478C308.501 586.963 308.395 585.38 307.856 583.928C307.317 582.476 306.369 581.22 305.134 580.321C303.898 579.422 302.43 578.92 300.916 578.878C299.401 578.835 297.909 579.256 296.627 580.085C295.346 580.914 294.334 582.114 293.719 583.535C293.104 584.955 292.914 586.53 293.173 588.061C293.432 589.592 294.129 591.009 295.175 592.133C296.22 593.258 297.568 594.038 299.047 594.375C301.018 594.825 303.082 594.458 304.789 593.353C306.497 592.248 307.709 590.495 308.162 588.478Z" fill="white" stroke="#263238" stroke-linecap="round" stroke-linejoin="round"/>
<path d="M322.336 623.274L326.304 595.142L332.184 595.997L328.216 624.129L322.336 623.274Z" fill="#263238" stroke="#263238" stroke-linecap="round" stroke-linejoin="round"/>
<path d="M320.582 624.763L321.661 617.023L330.588 618.335L329.51 626.061C329.427 626.663 329.229 627.243 328.928 627.767C328.627 628.291 328.228 628.748 327.754 629.114C327.28 629.479 326.74 629.746 326.166 629.897C325.592 630.049 324.994 630.083 324.407 629.998C323.223 629.823 322.156 629.173 321.439 628.192C320.722 627.21 320.414 625.977 320.582 624.763Z" fill="white" stroke="#263238" stroke-linecap="round" stroke-linejoin="round"/>
<path d="M334.485 594.154C333.808 593.072 332.834 592.221 331.685 591.707C330.537 591.192 329.265 591.039 328.032 591.265C326.798 591.492 325.658 592.088 324.754 592.979C323.851 593.87 323.226 595.016 322.957 596.271C322.688 597.526 322.788 598.835 323.244 600.032C323.7 601.229 324.492 602.261 325.519 602.997C326.546 603.733 327.763 604.14 329.016 604.167C330.269 604.194 331.502 603.839 332.558 603.148C333.975 602.216 334.974 600.746 335.335 599.06C335.697 597.373 335.391 595.609 334.485 594.154Z" fill="white" stroke="#263238" stroke-linecap="round" stroke-linejoin="round"/>
<path d="M295.87 619.529L313.696 590.571L319.748 594.464L301.936 623.437L295.87 619.529Z" fill="#263238" stroke="#263238" stroke-linecap="round" stroke-linejoin="round"/>
<path d="M293.181 620.237L298.055 612.275L307.27 618.172L302.382 626.149C301.613 627.397 300.393 628.282 298.99 628.611C297.586 628.94 296.113 628.685 294.892 627.904C293.676 627.118 292.813 625.869 292.493 624.433C292.172 622.996 292.42 621.487 293.181 620.237Z" fill="white" stroke="#263238" stroke-linecap="round" stroke-linejoin="round"/>
<path d="M323.156 593.609C322.942 592.073 322.289 590.637 321.279 589.483C320.269 588.329 318.948 587.508 317.482 587.125C316.017 586.743 314.474 586.815 313.048 587.333C311.623 587.851 310.38 588.791 309.476 590.035C308.573 591.279 308.05 592.77 307.974 594.318C307.898 595.867 308.272 597.405 309.049 598.735C309.826 600.066 310.971 601.13 312.338 601.792C313.706 602.454 315.234 602.685 316.729 602.455C318.724 602.153 320.52 601.052 321.724 599.393C322.929 597.735 323.444 595.655 323.156 593.609Z" fill="white" stroke="#263238" stroke-linecap="round" stroke-linejoin="round"/>
<path d="M290.169 511.492C303.681 502.571 307.584 484.105 298.886 470.246C290.188 456.387 272.182 452.385 258.67 461.306C245.157 470.227 241.255 488.693 249.953 502.552C258.651 516.41 276.656 520.413 290.169 511.492Z" fill="white" stroke="#263238" stroke-linecap="round" stroke-linejoin="round"/>
<path d="M287.258 492.439C290.505 485.178 287.398 476.592 280.319 473.262C273.239 469.931 264.867 473.118 261.62 480.379C258.373 487.64 261.48 496.226 268.559 499.556C275.639 502.887 284.011 499.7 287.258 492.439Z" fill="#263238" stroke="#263238" stroke-linecap="round" stroke-linejoin="round"/>
<path d="M215.435 427.262C241.247 427.262 262.172 405.801 262.172 379.328C262.172 352.854 241.247 331.394 215.435 331.394C189.623 331.394 168.698 352.854 168.698 379.328C168.698 405.801 189.623 427.262 215.435 427.262Z" fill="#C8B9FC" stroke="#263238" stroke-linecap="round" stroke-linejoin="round"/>
<path d="M282.256 411.249C292.305 398.346 298.597 382.795 300.409 366.386C302.221 349.977 299.479 333.377 292.498 318.496C285.518 303.614 274.582 291.057 260.95 282.268C247.318 273.48 231.544 268.817 215.443 268.817C199.341 268.817 183.567 273.48 169.935 282.268C156.303 291.057 145.368 303.614 138.387 318.496C131.406 333.377 128.664 349.977 130.476 366.386C132.288 382.795 138.581 398.346 148.629 411.249H282.256Z" fill="white" stroke="#263238" stroke-linecap="round" stroke-linejoin="round"/>
<path d="M267.736 323.461H160.978C154.484 323.461 149.219 328.861 149.219 335.522V374.329C149.219 380.991 154.484 386.39 160.978 386.39H267.736C274.231 386.39 279.496 380.991 279.496 374.329V335.522C279.496 328.861 274.231 323.461 267.736 323.461Z" fill="#C8B9FC" stroke="#263238" stroke-linecap="round" stroke-linejoin="round"/>
<path d="M163.307 352.375C164.719 348.321 167.292 344.798 170.689 342.27C174.087 339.741 178.15 338.324 182.346 338.205C186.542 338.085 190.675 339.268 194.204 341.6C197.733 343.931 200.493 347.302 202.122 351.269" stroke="#263238" stroke-width="5" stroke-linecap="round" stroke-linejoin="round"/>
<path d="M227.698 352.375C229.11 348.321 231.683 344.798 235.08 342.27C238.478 339.741 242.541 338.324 246.737 338.205C250.933 338.085 255.066 339.268 258.595 341.6C262.124 343.931 264.884 347.302 266.513 351.269" stroke="#263238" stroke-width="5" stroke-linecap="round" stroke-linejoin="round"/>
<path d="M204.135 366.957C204.496 369.881 205.885 372.57 208.04 374.518C210.196 376.467 212.971 377.542 215.845 377.542C218.718 377.542 221.493 376.467 223.649 374.518C225.805 372.57 227.193 369.881 227.554 366.957H204.135Z" fill="white" stroke="#263238" stroke-linecap="round" stroke-linejoin="round"/>
<path d="M326.06 371.941C323.689 371.941 321.414 370.974 319.737 369.255C318.06 367.535 317.118 365.202 317.118 362.77V341.906C317.118 339.474 318.06 337.141 319.737 335.421C321.414 333.701 323.689 332.735 326.06 332.735C327.236 332.733 328.4 332.969 329.486 333.429C330.573 333.889 331.561 334.564 332.392 335.416C333.224 336.268 333.884 337.28 334.334 338.393C334.785 339.507 335.016 340.701 335.016 341.906V362.77C335.016 363.975 334.785 365.169 334.334 366.283C333.884 367.396 333.224 368.408 332.392 369.26C331.561 370.112 330.573 370.787 329.486 371.247C328.4 371.707 327.236 371.943 326.06 371.941Z" fill="#263238" stroke="#263238" stroke-linecap="round" stroke-linejoin="round"/>
<path d="M102.352 371.941C99.9854 371.933 97.7184 370.963 96.0477 369.244C94.3769 367.525 93.4388 365.197 93.4388 362.77V341.906C93.435 339.477 94.3714 337.145 96.0426 335.422C97.7137 333.7 99.9829 332.729 102.352 332.721C104.724 332.721 106.998 333.687 108.675 335.407C110.352 337.127 111.294 339.459 111.294 341.892V362.755C111.296 363.961 111.066 365.155 110.617 366.269C110.169 367.384 109.511 368.396 108.68 369.249C107.85 370.103 106.863 370.779 105.777 371.241C104.691 371.703 103.528 371.941 102.352 371.941Z" fill="#263238" stroke="#263238" stroke-linecap="round" stroke-linejoin="round"/>
<path d="M131.019 277.798C123.109 289.784 118.892 303.931 118.914 318.404V333.561" stroke="#263238" stroke-width="14" stroke-linecap="round" stroke-linejoin="round"/>
<path d="M300.773 277.857C294.3 267.966 285.553 259.861 275.304 254.258C265.054 248.655 253.618 245.726 242.003 245.729H189.76C178.162 245.72 166.739 248.637 156.498 254.221C146.257 259.806 137.512 267.887 131.033 277.753" stroke="#263238" stroke-width="7" stroke-linecap="round" stroke-linejoin="round"/>
<path d="M312.819 333.561V318.404C312.841 303.958 308.645 289.835 300.772 277.857" stroke="#263238" stroke-width="14" stroke-linecap="round" stroke-linejoin="round"/>
<path d="M126.044 317.239H114.054C107.115 317.239 101.489 323.009 101.489 330.126V372.722C101.489 379.839 107.115 385.609 114.054 385.609H126.044C132.983 385.609 138.609 379.839 138.609 372.722V330.126C138.609 323.009 132.983 317.239 126.044 317.239Z" fill="white" stroke="#263238" stroke-linecap="round" stroke-linejoin="round"/>
<path d="M121.946 317.239H118.165V385.609H121.946V317.239Z" fill="#C8B9FC" stroke="#263238" stroke-linecap="round" stroke-linejoin="round"/>
<path d="M315.407 317.239H303.418C296.478 317.239 290.853 323.009 290.853 330.126V372.722C290.853 379.839 296.478 385.609 303.418 385.609H315.407C322.347 385.609 327.972 379.839 327.972 372.722V330.126C327.972 323.009 322.347 317.239 315.407 317.239Z" fill="white" stroke="#263238" stroke-linecap="round" stroke-linejoin="round"/>
<path d="M311.31 317.239H307.529V385.609H311.31V317.239Z" fill="#C8B9FC" stroke="#263238" stroke-linecap="round" stroke-linejoin="round"/>
<path d="M215.737 311.032C222.291 311.038 228.741 309.36 234.5 306.151C240.258 302.942 245.141 298.303 248.701 292.66L256.81 279.788C243.961 272.511 229.502 268.749 214.825 268.866C200.148 268.982 185.748 272.972 173.011 280.452L185.187 295.992C188.859 300.682 193.51 304.468 198.797 307.071C204.084 309.674 209.872 311.027 215.737 311.032Z" fill="#C8B9FC" stroke="#263238" stroke-linecap="round" stroke-linejoin="round"/>
<path d="M217.764 392.76C217.764 392.468 217.68 392.183 217.522 391.941C217.364 391.698 217.139 391.509 216.877 391.398C216.614 391.286 216.325 391.257 216.046 391.314C215.767 391.371 215.511 391.511 215.31 391.717C215.109 391.924 214.972 392.186 214.917 392.472C214.861 392.758 214.89 393.055 214.998 393.324C215.107 393.594 215.291 393.824 215.528 393.986C215.764 394.148 216.042 394.234 216.327 394.234C216.708 394.234 217.073 394.079 217.343 393.803C217.613 393.526 217.764 393.151 217.764 392.76Z" fill="#263238"/>
<path d="M217.764 397.714C217.764 397.422 217.68 397.137 217.522 396.895C217.364 396.653 217.139 396.464 216.877 396.352C216.614 396.24 216.325 396.211 216.046 396.268C215.767 396.325 215.511 396.465 215.31 396.672C215.109 396.878 214.972 397.14 214.917 397.426C214.861 397.712 214.89 398.009 214.998 398.278C215.107 398.548 215.291 398.778 215.528 398.94C215.764 399.102 216.042 399.189 216.327 399.189C216.708 399.189 217.073 399.033 217.343 398.757C217.613 398.48 217.764 398.105 217.764 397.714Z" fill="#263238"/>
<path d="M212.287 396.948C212.509 396.944 212.728 396.887 212.925 396.782C213.122 396.676 213.293 396.525 213.424 396.341C213.555 396.156 213.642 395.943 213.679 395.718C213.716 395.493 213.701 395.263 213.637 395.044C213.572 394.826 213.459 394.626 213.306 394.46C213.153 394.295 212.965 394.168 212.756 394.089C212.547 394.011 212.323 393.983 212.102 394.008C211.881 394.034 211.668 394.111 211.482 394.235C211.219 394.409 211.019 394.666 210.911 394.967C210.804 395.268 210.795 395.596 210.886 395.903C210.977 396.21 211.163 396.477 211.416 396.666C211.668 396.855 211.974 396.953 212.287 396.948Z" fill="#263238"/>
<path d="M220.927 396.948C221.149 396.944 221.368 396.887 221.565 396.782C221.762 396.676 221.933 396.525 222.064 396.341C222.195 396.156 222.282 395.943 222.319 395.718C222.356 395.493 222.341 395.263 222.277 395.044C222.212 394.826 222.099 394.626 221.946 394.46C221.793 394.295 221.605 394.168 221.396 394.089C221.187 394.011 220.963 393.983 220.742 394.008C220.521 394.034 220.309 394.111 220.122 394.235C219.899 394.239 219.681 394.296 219.483 394.401C219.286 394.506 219.115 394.657 218.984 394.842C218.854 395.026 218.766 395.239 218.729 395.464C218.692 395.689 218.707 395.92 218.772 396.138C218.837 396.357 218.95 396.556 219.103 396.722C219.256 396.888 219.444 397.015 219.653 397.094C219.862 397.172 220.085 397.2 220.306 397.174C220.528 397.149 220.74 397.072 220.927 396.948Z" fill="#263238"/>
<path d="M272.925 448.081C254.624 443.849 215.004 442.331 215.004 442.331C205.458 442.64 178.891 443.805 160.59 448.096C157.125 448.903 154.11 451.079 152.2 454.151C150.289 457.223 149.636 460.944 150.383 464.506L167.332 545.836C168.165 549.78 170.287 553.313 173.346 555.85C176.405 558.387 180.218 559.775 184.152 559.785H249.449C253.383 559.775 257.196 558.387 260.255 555.85C263.314 553.313 265.436 549.78 266.269 545.836L283.204 464.506C283.949 460.931 283.287 457.2 281.362 454.123C279.436 451.047 276.404 448.875 272.925 448.081Z" fill="white" stroke="#263238" stroke-linecap="round" stroke-linejoin="round"/>
<path d="M264.516 446.518C244.662 443.481 214.975 442.331 214.975 442.331C200.44 442.758 185.937 443.988 171.531 446.017L190.766 559.785H242.951L264.516 446.518Z" fill="#C8B9FC" stroke="#263238" stroke-linecap="round" stroke-linejoin="round"/>
<path d="M232.14 467.057H200.34C193.845 467.057 188.58 472.457 188.58 479.118V495.042C188.58 501.703 193.845 507.103 200.34 507.103H232.14C238.635 507.103 243.9 501.703 243.9 495.042V479.118C243.9 472.457 238.635 467.057 232.14 467.057Z" fill="white" stroke="#263238" stroke-linecap="round" stroke-linejoin="round"/>
<path d="M206.953 483.556H197.997V492.742H206.953V483.556Z" fill="white" stroke="#263238" stroke-linecap="round" stroke-linejoin="round"/>
<path d="M220.712 483.556H211.755V492.742H220.712V483.556Z" fill="white" stroke="#263238" stroke-linecap="round" stroke-linejoin="round"/>
<path d="M234.484 483.556H225.527V492.742H234.484V483.556Z" fill="white" stroke="#263238" stroke-linecap="round" stroke-linejoin="round"/>
<path d="M90.3916 534.07H249.737C251.644 534.07 253.472 534.847 254.82 536.23C256.168 537.612 256.925 539.487 256.925 541.443V633.256H83.2035V541.443C83.2035 539.487 83.9608 537.612 85.3088 536.23C86.6569 534.847 88.4852 534.07 90.3916 534.07Z" fill="white" stroke="#263238" stroke-linecap="round" stroke-linejoin="round"/>
<path d="M256.926 567.069C235.103 572.745 212.705 587.195 170.97 607.542C130.717 627.182 97.7669 626.842 83.2757 625.324V633.256H256.926V567.069Z" fill="#263238" stroke="#263238" stroke-linecap="round" stroke-linejoin="round"/>
<path d="M256.925 627.756H83.2034V633.271H256.925V627.756Z" fill="white" stroke="#263238" stroke-linecap="round" stroke-linejoin="round"/>
<path d="M179.021 583.671C179.029 585.489 178.511 587.27 177.533 588.786C176.554 590.302 175.158 591.487 173.522 592.189C171.886 592.891 170.084 593.079 168.344 592.73C166.604 592.38 165.004 591.509 163.747 590.226C162.49 588.943 161.633 587.306 161.284 585.523C160.935 583.74 161.109 581.891 161.786 580.21C162.463 578.529 163.61 577.092 165.084 576.08C166.558 575.069 168.291 574.529 170.065 574.529C172.433 574.529 174.704 575.491 176.382 577.204C178.061 578.917 179.01 581.242 179.021 583.671Z" fill="white" stroke="#263238" stroke-linecap="round" stroke-linejoin="round"/>
</svg>
